<?xml version="1.0" encoding="UTF-8"?>
<svg id="Layer_1" data-name="Layer 1" xmlns="http://www.w3.org/2000/svg" viewBox="0 0 32 32">
  <defs>
    <style>
      .dvm-alternate-1 {
        fill: #75ca64;
      }

      .dvm-alternate-2 {
        fill: #59717f;
      }
    </style>
  </defs>
  <path class="dvm-alternate-2" d="M28.36,16.03l-.85-1.79,1.51-.75v-6.6l-6.04-2.92-6.51,3.21c-.28.09-.57.09-.85,0l-6.6-3.11-6.04,2.92v6.51l1.51.75-.85,1.79-2.08-1.04c-.38-.19-.57-.47-.57-.85v-7.83c0-.38.19-.75.57-.85l7.08-3.4c.28-.09.57-.09.85,0l6.51,3.21,6.51-3.21c.28-.09.57-.09.85,0l7.08,3.4c.38.19.57.47.57.85v7.83c0,.38-.19.75-.57.85l-2.08,1.04Z"/>
  <path class="dvm-alternate-2" d="M16,29.71c-.19,0-.28,0-.47-.09l-6.98-3.49c-.38-.19-.57-.47-.57-.85v-3.68l1.98.94v2.08l5.94,3.02,5.94-2.92v-2.26l1.98-.94v3.77c0,.38-.19.75-.57.94l-6.98,3.4c0,.09-.09.09-.28.09Z"/>
  <path class="dvm-alternate-1" d="M16.09,10c-5.52,0-10,6-10,6,0,0,4.48,6,10,6s10-6,10-6c0,0-4.48-6-10-6ZM16.09,19.13c-1.81,0-3.33-1.43-3.33-3.13s1.52-3.13,3.33-3.13,3.33,1.43,3.33,3.13-1.52,3.13-3.33,3.13Z"/>
</svg>
