<svg version="1.1" id="GE_Vernova_SVG" xmlns:x="ns_extend;" xmlns:i="ns_ai;" xmlns:graph="ns_graphs;" xmlns="http://www.w3.org/2000/svg" xmlns:xlink="http://www.w3.org/1999/xlink" x="0px" y="0px" viewBox="0 0 280.8 281.3" style="enable-background:new 0 0 280.8 281.3;" xml:space="preserve">
 <style type="text/css">
  .st0{fill:#00827A;}
 </style>
 <metadata>
  <sfw xmlns="ns_sfw;">
   <slices>
   </slices>
   <sliceSourceBounds height="281.3" width="280.8" x="0.3" y="0">
   </sliceSourceBounds>
  </sfw>
 </metadata>
 <path id="Path_1" class="st0" d="M171.8,104c0-16,10.8-31.5,16.7-28.6C195.2,78.8,183.5,93.9,171.8,104 M98.2,109.9
	c0-12.9,12.7-37.3,20.4-34.7C127.8,78.2,111.1,102.8,98.2,109.9L98.2,109.9z M85.4,201.8c-5.8,0.3-9.7-3.5-9.7-9.7
	c0-16.8,23.2-32.7,40.7-41.3C113.3,174.2,105.4,200.9,85.4,201.8L85.4,201.8z M192.4,147.3c-13.2,0-23.4,9.7-23.4,21.4
	c0,9.7,5.8,17.5,13.6,17.5c2.7,0,5.4-1.6,5.4-5.1c0-5.1-6.7-6.3-6.2-13.9c0.3-5,5-8.3,9.7-8.3c9.3,0,13.7,9.1,13.7,18.4
	c-0.4,14.4-11,24.4-23.4,24.4c-16.4,0-26.8-15.6-26.8-32.3c0-24.9,16.3-34.7,24.9-37c0.1,0,22.4,4,21.7-5.9c-0.3-4.3-6.7-6-11.4-6.2
	c-3.5,0-7,0.5-10.4,1.7c-2.8-1.6-4.8-4.1-5.8-7.2c16-12.1,27.2-23.8,27.2-37c0-7-4.7-13.2-13.6-13.2c-16,0-28,20.3-28,38.6
	c-0.1,3,0.1,6,0.8,9c-10.1,7.4-17.6,12-31.3,20.2c0.2-4,0.7-7.9,1.5-11.8c4.7-5.1,11.1-12.6,11.1-18.5c0-2.7-1.6-5.1-4.7-5.1
	c-7.8,0-13.6,11.7-15.2,19.9c-3.5,4.3-10.5,9.7-16.4,9.7c-4.7,0-6.2-4.3-6.6-5.8c14.8-5.1,33.1-25.3,33.1-43.6
	c0-3.9-1.6-12.5-13.2-12.5c-17.5,0-32.3,26.1-32.3,46.4c-6.2,0-8.6-6.6-8.6-11.7s1.9-10.1,1.9-11.7s-0.8-3.5-3.1-3.5
	c-5.8,0-9.3,7.8-9.3,16.8c0.4,12.5,8.6,20.3,19.5,21c1.6,7.4,8.2,14.4,16.4,14.4c5.1,0,11.3-1.6,15.6-5.5c-0.4,2.7-0.8,5.1-1.2,7.4
	c-17.1,9-29.6,15.2-40.9,25.3c-8.9,8.2-14,19.1-14,27.7c0,11.7,7.4,22.6,22.6,22.6c17.9,0,31.5-14.4,38.1-34.3
	c3.1-9.4,4.4-23,5.1-35.4c12.3-6.8,24.3-14.4,35.7-22.6c1,1.8,2.3,3.4,3.9,4.7c-8.2,4.3-27.6,16.4-27.6,44.8
	c0,20.3,13.6,42.9,40.5,42.9c22.2,0,37.4-18.3,37.4-35.8C218.5,162,209.6,147.2,192.4,147.3L192.4,147.3z M259.3,180.7
	c-0.1,0.1-0.3,0.3-0.7,0.2c-0.3-0.1-0.4-0.3-0.4-0.5c3-9.7,4.6-19.8,4.7-30c-0.1-17.1-7-27.7-16-27.7c-5.5,0-9.3,3.9-9.3,9.7
	c0,10.5,12.8,11.3,12.8,34.3c0,9.4-1.9,18.3-5.1,28.1c-14.4,48.7-60.3,71.3-105.1,71.3c-20.6,0-35.3-4.2-39.7-6.2
	c-0.2-0.2-0.3-0.5-0.2-0.8c0.1-0.3,0.4-0.5,0.6-0.4c9.7,3.1,19.8,4.7,29.9,4.7c17.1,0,27.3-7,27.3-15.6c0-5.3-4.2-9.7-9.6-9.7
	c-0.1,0-0.1,0-0.2,0c-10.5,0-11.3,13.2-33.9,13.2c-9.7,0-18.3-1.9-28.4-5.1c-48.3-14.8-71.3-60.4-71.2-105.6
	c0-13.5,2.1-26.9,6.3-39.7c0.2-0.2,0.5-0.2,0.7-0.1c0.3,0.1,0.4,0.4,0.4,0.5c-3,9.7-4.6,19.8-4.7,30c0,17.1,7,27.3,16,27.3
	c5.1,0.1,9.3-4,9.3-9.1c0-0.1,0-0.2,0-0.2c0-10.5-12.8-11.7-12.8-34.3c0-9.7,1.9-18.3,5.1-28.4c14.8-48.3,60.3-71,105.1-71.3
	c20.8-0.2,39,6.1,39.7,6.6c0.2,0.2,0.2,0.5,0.1,0.7c-0.1,0.4-0.4,0.4-0.5,0.4c-0.2,0-12.1-5-30-5c-16.7,0-27.2,7-27.2,16
	c0,5.1,4.1,9.3,9.3,9.4c0.2,0,0.3,0,0.5,0c10.5,0,11.3-12.9,33.9-12.9c9.7,0,18.3,1.9,28.4,5.1c48.7,14.8,70.8,60.8,71.2,105.2
	C265.7,154.2,263.6,167.8,259.3,180.7L259.3,180.7z M140.3,6.6C66.2,6.5,6.2,66.5,6.1,140.5S66,274.6,140,274.6
	c74,0.1,134.1-59.9,134.1-133.9c0,0,0-0.1,0-0.1C274.2,66.7,214.2,6.7,140.3,6.6z M140.3,281.3C62.6,281.1-0.2,217.9,0,140.3
	C0.2,62.9,62.9,0.2,140.3,0c77.5,0,140.5,63.1,140.5,140.6S217.7,281.3,140.3,281.3L140.3,281.3z">
 </path>
</svg>